<svg xmlns="http://www.w3.org/2000/svg" viewBox="0 0 471 430.67"><defs><style>.cls-1{fill:#fff1e2;}.cls-11,.cls-12,.cls-2,.cls-35,.cls-36,.cls-6{fill:none;}.cls-2,.cls-6{stroke:#ff9a8d;}.cls-11,.cls-12,.cls-2,.cls-36,.cls-6{stroke-linecap:round;stroke-linejoin:round;}.cls-2{stroke-dasharray:5;}.cls-3{fill:#ff9a8d;}.cls-4{fill:#d66f67;}.cls-5{fill:#ef857d;}.cls-6{stroke-dasharray:5.1 5.1;}.cls-7{fill:#8cd3e8;}.cls-8{fill:#fff;}.cls-9{fill:#d86a7d;}.cls-10{fill:#71bbcc;}.cls-11,.cls-12,.cls-36{stroke:#fff;}.cls-11{stroke-width:3px;}.cls-13{fill:#ff8968;}.cls-14{fill:#313280;}.cls-15{fill:#4343aa;}.cls-16{fill:#5454c8;}.cls-17{fill:#9a7bf0;}.cls-18{fill:#7272db;}.cls-19{fill:#ffb5b3;}.cls-20{fill:#826adb;}.cls-21{fill:#ba5b70;}.cls-22{fill:#ab97f7;}.cls-23{fill:#ed8ea3;}.cls-24{fill:#ffd00a;}.cls-25{fill:#ffe98a;}.cls-26{fill:#ffb696;}.cls-27{fill:#ff8b9b;}.cls-28{fill:#26295e;}.cls-29{fill:#d88c71;}.cls-30{fill:#ffefca;}.cls-31{fill:#836cd8;}.cls-32{fill:#5454c9;}.cls-33{fill:#dd7385;}.cls-34{fill:#ff9f7f;}.cls-35{stroke:#5454c8;stroke-miterlimit:10;}.cls-35,.cls-36{stroke-width:0.5px;}.cls-36{stroke-dasharray:1;}.cls-37{fill:#d88e75;}.cls-38{fill:#7961d1;}</style></defs><g id="Layer_2" data-name="Layer 2"><g id="OBJECT"><ellipse class="cls-1" cx="235.5" cy="417.67" rx="235.5" ry="13"/><path class="cls-1" d="M170.51,66.45c71.13-12.66,128.05,10.62,150.17,41.88s59.83,11.26,91.26,52.4,32.47,142.69-116.27,150-224.21-14.09-240-59.21S49.18,88,170.51,66.45Z"/><path class="cls-2" d="M149.08,93.92S171.72,151.86,265,160.53s125.07-22.2,157.59-13.2"/><polygon class="cls-3" points="123.37 95.8 138.14 74.64 158.7 68.45 98.42 45.3 123.37 95.8"/><polygon class="cls-4" points="98.42 45.3 136.28 77.3 140.54 87.51 142.4 73.36 98.42 45.3"/><polygon class="cls-5" points="132.09 83.31 140.54 87.51 136.28 77.3 132.09 83.31"/><circle class="cls-6" cx="73" cy="127.67" r="32.5" transform="translate(-72.89 146.26) rotate(-67.5)"/><circle class="cls-2" cx="425.5" cy="216.17" r="17" transform="translate(62.95 526.56) rotate(-67.5)"/><circle class="cls-7" cx="203.5" cy="28.17" r="16.5"/><path class="cls-8" d="M208.77,34.53A6.94,6.94,0,0,1,205,36.26v2.41h-4V36.34a10.81,10.81,0,0,1-5.34-1.82l1.21-2.46a6.61,6.61,0,0,0,1.32.83,10.52,10.52,0,0,0,2,.73,9,9,0,0,0,2.25.29,4.56,4.56,0,0,0,2.36-.57,1.9,1.9,0,0,0,1-1.79,1.44,1.44,0,0,0-.56-1.15,4.65,4.65,0,0,0-1.37-.77q-.81-.28-2.1-.63a15,15,0,0,1-3-1.09,5.57,5.57,0,0,1-2.08-1.72,4.37,4.37,0,0,1-.81-2.7,4.17,4.17,0,0,1,.61-2.22,5.17,5.17,0,0,1,1.79-1.71,7.76,7.76,0,0,1,2.81-.95V15.67h4v3a9.94,9.94,0,0,1,2.5.75,4.44,4.44,0,0,1,1.5,1l-1.34,2.33a3.78,3.78,0,0,0-.88-.63,8.44,8.44,0,0,0-1.59-.68,5.86,5.86,0,0,0-1.84-.3,4.62,4.62,0,0,0-2.39.57,1.76,1.76,0,0,0-1,1.62A1.9,1.9,0,0,0,201.08,25a9.75,9.75,0,0,0,2.74.93,11.28,11.28,0,0,1,4.57,1.94,4.09,4.09,0,0,1,1.75,3.37A4.37,4.37,0,0,1,208.77,34.53Z"/><path class="cls-9" d="M98,227.67h18a0,0,0,0,1,0,0v8.39a4.61,4.61,0,0,1-4.61,4.61h-8.79A4.61,4.61,0,0,1,98,236.06v-8.39A0,0,0,0,1,98,227.67Z"/><path class="cls-7" d="M132.22,198.67a25.5,25.5,0,0,1-6.86,17.42,26,26,0,0,1-3.5,3.13,11.47,11.47,0,0,1-11.46,11.45h-7.93A11.47,11.47,0,0,1,91,219.2v-.31a25.57,25.57,0,1,1,41.22-20.22Z"/><path class="cls-10" d="M125.36,216.09a26,26,0,0,1-3.5,3.13,11.47,11.47,0,0,1-11.46,11.45h-7.93A11.47,11.47,0,0,1,91,219.2v-.31a25.43,25.43,0,0,1-3.07-2.8,19.43,19.43,0,0,1,37.43,0Z"/><path class="cls-8" d="M116.94,197.67h-1.42a8.94,8.94,0,0,1-8.52,8.91v-8.83c.37-.4,0-.71-.35-.71a.63.63,0,0,0-.65.71v8.83a8.9,8.9,0,0,1-8.21-8.91H96.36A10.32,10.32,0,0,0,106,208v21a.63.63,0,0,0,.65.71c.4,0,.72-.32.35-.71V208A10.36,10.36,0,0,0,116.94,197.67Z"/><path class="cls-11" d="M110.92,177a19.68,19.68,0,0,1,13.39,9.85"/><line class="cls-11" x1="126.13" y1="190.96" x2="126.61" y2="192.14"/><path class="cls-3" d="M422,97.58v-9.5l-7.1-1.45a20.16,20.16,0,0,0-.89-2.27l4.53-5.85-6.16-7.2-6.78,3.85a20.06,20.06,0,0,0-3.51-1.56l-1.57-7.93H391.1l-1.58,7.92a19.87,19.87,0,0,0-3.37,1.47l-7.53-4.28L372.46,78l5.05,6.53c-.21.46-.39.94-.56,1.42L369,87.55v9.51l7.57,1.51a20.07,20.07,0,0,0,.88,2.43l-5.28,6.84,6.16,7.19,7.84-4.46a19,19,0,0,0,2.23,1.05l1.78,9h9.42l1.68-8.4a19.55,19.55,0,0,0,3-1.14l7.78,4.43,6.16-7.2-4.71-6.09A19.88,19.88,0,0,0,414.9,99Zm-25.87,5.55A10.33,10.33,0,1,1,406.45,92.8,10.32,10.32,0,0,1,396.13,103.13Z"/><circle class="cls-12" cx="396" cy="92.67" r="15.5" transform="translate(50.46 307.16) rotate(-45)"/><path class="cls-13" d="M261.43,22.67H257V18.24a.5.5,0,0,0-1,0v4.43h-4.43a.5.5,0,0,0,0,1H256V28.1a.5.5,0,1,0,1,0V23.67h4.43a.5.5,0,0,0,0-1Z"/><path class="cls-13" d="M40.43,193.67H36v-4.43a.5.5,0,0,0-1,0v4.43H30.57a.5.5,0,1,0,0,1H35v4.43a.5.5,0,0,0,1,0v-4.43h4.43a.5.5,0,1,0,0-1Z"/><path class="cls-13" d="M401.43,181.67H397v-4.43a.5.5,0,0,0-1,0v4.43h-4.43a.5.5,0,0,0,0,1H396v4.43a.5.5,0,1,0,1,0v-4.43h4.43a.5.5,0,0,0,0-1Z"/><circle class="cls-3" cx="194.5" cy="96.17" r="3.5"/><circle class="cls-3" cx="145.5" cy="252.17" r="3.5"/><path class="cls-1" d="M87.15,22.67h59.36S142.65,12.6,133,8.53s-17.14,3.21-17.14,3.21S109.22-1.2,96.15.09,78.8,11.38,78.8,11.38s-15-2.85-16.5,11.29Z"/><path class="cls-1" d="M377.23,45.67h48.64s-3.16-8.25-11.06-11.59-14.05,2.63-14.05,2.63-5.45-10.6-16.16-9.55-14.22,9.25-14.22,9.25-12.3-2.33-13.53,9.26Z"/><polygon class="cls-9" points="168.38 273.53 134.87 296.68 120.24 374.67 131.82 374.67 150.4 312.83 170.51 307.04 168.38 273.53"/><polygon class="cls-9" points="297.81 273.53 331.32 296.68 345.94 374.67 334.36 374.67 315.78 312.83 295.67 307.04 297.81 273.53"/><polygon class="cls-14" points="239.59 307.67 227.86 307.67 177.73 307.67 184.23 344.67 227.86 344.67 239.59 344.67 283.22 344.67 289.72 307.67 239.59 307.67"/><rect class="cls-15" x="188" y="316.67" width="8" height="24" rx="4"/><path class="cls-15" d="M209,339.82h0a4,4,0,0,1-4-4V321.28a4,4,0,0,1,4-4h0a4,4,0,0,1,4,4v14.54A4,4,0,0,1,209,339.82Z"/><path class="cls-15" d="M226,339.82h0a4,4,0,0,1-4-4V321.28a4,4,0,0,1,4-4h0a4,4,0,0,1,4,4v14.54A4,4,0,0,1,226,339.82Z"/><path class="cls-15" d="M243,339.82h0a4,4,0,0,1-4-4V321.28a4,4,0,0,1,4-4h0a4,4,0,0,1,4,4v14.54A4,4,0,0,1,243,339.82Z"/><path class="cls-15" d="M260,339.82h0a4,4,0,0,1-4-4V321.28a4,4,0,0,1,4-4h0a4,4,0,0,1,4,4v14.54A4,4,0,0,1,260,339.82Z"/><path class="cls-15" d="M277,339.82h0a4,4,0,0,1-4-4V321.28a4,4,0,0,1,4-4h0a4,4,0,0,1,4,4v14.54A4,4,0,0,1,277,339.82Z"/><path class="cls-16" d="M300.85,268.67H163.71s-.26-80.06,20.29-140.75h0c1.29-3.8,2.66-7.53,4.11-11.15,4.08-.73,9-1.44,14.72-2,6.79-.66,14.74-1.1,23.89-1.12l3.56,0c6.7.07,13,.32,18.84.7s11.44.88,16.37,1.43c4.12.47,7.86,1,11.17,1.46.15.37.3.75.45,1.15l.72,1.87c.32.86.65,1.74,1,2.62l.93,2.61.63,1.81C301.11,188.08,300.85,268.67,300.85,268.67Z"/><path class="cls-17" d="M289.54,268.67a444.35,444.35,0,0,1-5.49,49H197.76c-3.93-9.58-9-25.67-11.8-49h52.51c.49,17,.58,33.36,0,48H264s.38-20.06,0-48Z"/><path class="cls-18" d="M264,268.67H238.51c-1.52-52.93-7-111.64-10.07-141.08l24.61-.16C261.16,163,263.43,225.34,264,268.67Z"/><ellipse class="cls-15" cx="230" cy="170.17" rx="35" ry="33.5"/><path class="cls-17" d="M265,166.62a32.41,32.41,0,0,1-1.24,8.92,31.58,31.58,0,0,1-2.45,6.11,32.46,32.46,0,1,1-43.37-44,0,0,0,0,1,0,0,32.48,32.48,0,0,1,47.05,29Z"/><rect class="cls-19" x="100" y="374.67" width="263" height="17"/><rect class="cls-3" x="80" y="391.67" width="297" height="17"/><path class="cls-9" d="M227,113.88c.36,3.26.88,8,1.49,13.94-10.43.07-20.62.14-28.57.21,1.2-5.07,2.29-9.48,3.19-13C209.85,114.34,217.8,113.9,227,113.88Z"/><path class="cls-9" d="M269.35,127.57l-16.3.09a115.16,115.16,0,0,0-3.7-13.06c6,.38,11.44.88,16.37,1.43C266.46,118.27,267.74,122.21,269.35,127.57Z"/><path class="cls-20" d="M197.82,317.67H164v-49h22C188.77,292,193.89,308.09,197.82,317.67Z"/><path class="cls-21" d="M202.83,115c-.9,3.55-2,8-3.19,13l-15.64.12h0c1.29-3.8,2.66-7.53,4.11-11.15,1.4-.25,2.9-.5,4.5-.74l1-.14C196.38,115.7,199.46,115.32,202.83,115Z"/><path class="cls-15" d="M184.23,246.1c.31,8.17.91,15.68,1.73,22.57h-22s-.26-80.06,20.29-140.75l15.64-.12C193.05,156.81,182.78,207.65,184.23,246.1Z"/><path class="cls-22" d="M301,268.67v49H284a444.35,444.35,0,0,0,5.49-49Z"/><path class="cls-23" d="M280.59,127.55c-.1,0-4.45,0-11.24,0-1.61-5.36-2.89-9.3-3.63-11.54,4.12.47,7.86,1,11.17,1.46.15.37.3.75.45,1.15l.72,1.87c.32.86.65,1.74,1,2.62l.93,2.61Z"/><path class="cls-18" d="M301.08,268.67H289.54c1-18.11.88-38.49-1.88-58.05a580.46,580.46,0,0,0-18.31-83.28c6.79,0,11.14,0,11.24,0C301.34,188.08,301.08,268.67,301.08,268.67Z"/><path class="cls-20" d="M261.29,181.65a32.46,32.46,0,1,1-52.43-37.26c.83,1.34,2.45,3.86,4.77,7a24.27,24.27,0,1,0,38.79,29.14A41.19,41.19,0,0,0,261.29,181.65Z"/><path class="cls-24" d="M252.42,180.5a24.27,24.27,0,1,1-38.79-29.14C220.76,161,234.54,176.22,252.42,180.5Z"/><path class="cls-25" d="M256.79,166.62a24,24,0,0,1-4.37,13.88c-17.88-4.28-31.66-19.55-38.79-29.14a24.28,24.28,0,0,1,43.16,15.26Z"/><path class="cls-23" d="M253.05,127.66l-24.61.16c-.61-5.93-1.13-10.68-1.49-13.94l3.56,0c1.59,0,3.16,0,4.71.08l.61,0q3.46.07,6.76.23c2.32.1,4.57.23,6.76.37A115.16,115.16,0,0,1,253.05,127.66Z"/><path class="cls-22" d="M264,316.67H238.51c.54-14.64.45-31,0-48H264C264.34,296.61,264,316.67,264,316.67Z"/><path class="cls-22" d="M263.74,175.54a36.68,36.68,0,0,0-24.38-35.92,45.09,45.09,0,0,0-21.43-2,32.49,32.49,0,0,1,45.81,37.94Z"/><polygon class="cls-21" points="134.87 296.35 144.97 330.59 150.4 312.49 164.79 308.35 163.94 276.26 134.87 296.35"/><polygon class="cls-21" points="301 288.67 323.22 303.81 339.57 374.67 334.29 374.67 315.7 312.83 301 308.6 301 288.67"/><path class="cls-17" d="M24.48,403.67H30v-8H18.22a2.61,2.61,0,0,1-2.66-2.28,2.49,2.49,0,0,1,2.49-2.72H30v-53H21.05a4.66,4.66,0,0,1-4.63-3.57,4.57,4.57,0,0,1,4.6-5.43H44.09a4.66,4.66,0,0,1,4.63,3.57,4.56,4.56,0,0,1-4.6,5.43H35v53H48.38A2.61,2.61,0,0,1,51,393a2.49,2.49,0,0,1-2.49,2.72H35v8h5.45c5.33,0,9.65,4,9.65,9H14.82C14.82,407.7,19.14,403.67,24.48,403.67Z"/><path class="cls-26" d="M35.69,395.79l-1,3s-.83,1.27-3.17,1.08-2.86-1-2.86-1l.51-3.8Z"/><path class="cls-26" d="M56.76,389.51l-2.43,4a12.74,12.74,0,0,1-3.77-.89,3.92,3.92,0,0,1-1.93-1.72l1.95-3.78Z"/><path class="cls-14" d="M54.71,393s2,5.3,3.55,7.37,2.13,2.57,2,3.52-3.92,1.12-6.8-1-3.23-3.11-4.54-4.7-2.63-2.66-3-3.72,3.49-5,3.49-5S49.93,392.48,54.71,393Z"/><path class="cls-14" d="M34.68,398.77a42.37,42.37,0,0,0,1.52,7.67c1.08,3.24,2.09,4.82,1.58,6.22s-2.41,2-5.61,1.14-3.84-3.3-4.41-6.28-.63-3.42-.57-3.93,1.46-5.84,1.46-5.84A6.58,6.58,0,0,0,34.68,398.77Z"/><path class="cls-14" d="M69.79,358.88,58.17,391.49a10,10,0,0,1-5-1.23,14.42,14.42,0,0,1-3.59-2.57s4-26.87,7.82-31.7L42.45,335.28c2,8.13,4.07,18.24,3.71,24.5l-8.8,35.69c-1.72,1.89-4.26,1.86-6.35,1.37a15.11,15.11,0,0,1-3.62-1.37s5.28-35.42,5.3-35.46c-1.68-4.77-7.58-22-8.33-29.65C24.73,325.28,26,316,26,315.67l4.26,1h22l.45,4.59,0,0s11.12,15.32,16.59,27.66A13.71,13.71,0,0,1,69.79,358.88Z"/><path class="cls-9" d="M54.2,271a6.18,6.18,0,0,1,3,4.77l8.83,25.38-8.27,4.76s-4.77-9-5.47-15.56S54.2,271,54.2,271Z"/><path class="cls-27" d="M44.25,267.88l10,3.08a66.87,66.87,0,0,1,1.26,11.85c0,5.82-2,17.17-2,17.17l-1.24,16.69L26,316s-2.57-36.91-1.17-45.46l11.91-4.38Z"/><path class="cls-26" d="M36.63,266.62l.91-7.31c-.77-3.87-1.82-11.14.54-13.2,3.26-2.83,15.56-3.12,15.35,6.91,0,0-1.4,8.27-3.64,11.92-.91,1.46-3,1.24-5.14.44l-1.21,5.13Z"/><path class="cls-14" d="M53.11,251.63s-7,1-9.51-1.47c0,0,.37,2.74-.74,4.42a2.8,2.8,0,0,1-2.47,1.52s0-2.68-1.15-2.63-1.4,2.91-.83,4.56,1.35,1.65,1.35,1.65l-2.42,1.21s-1.84-8.15-1.84-10.73a4.33,4.33,0,0,1,1.42-3.57,4.92,4.92,0,0,1,4.37-3.1c3.52-.37,7.67,1.1,11.14,2.94s3.89,3.63,3.63,4-1.05.36-1.05.36.58,3.52-1.92,4A9.7,9.7,0,0,0,53.11,251.63Z"/><path class="cls-28" d="M31,396.84a15.11,15.11,0,0,1-3.62-1.37s5.28-35.42,5.3-35.46c-1.68-4.77-7.58-22-8.33-29.65C24.73,325.28,26,316,26,316s4.3.07,4.32.11a37.83,37.83,0,0,0-1.19,16c1.29,8.68,7.5,28.39,7.83,30.21S29.2,387.22,31,396.84Z"/><path class="cls-29" d="M44.65,265.38S40.76,264,40,260.89c0,0,0,5.37,4.13,6.63Z"/><polygon class="cls-30" points="36.99 263.7 43.44 270.51 39.37 273.01 35.14 266.7 36.99 263.7"/><polygon class="cls-30" points="44.22 267.2 43.44 270.51 46.63 271.74 46.32 267.67 44.6 265.78 44.22 267.2"/><path class="cls-9" d="M24.78,270.51s2.85,2,4.12,7.6,1.54,26.5,1.54,26.5l-8,1.26s-3.51-17-2.39-25.65S24.78,270.51,24.78,270.51Z"/><path class="cls-26" d="M89.36,312.18a15.45,15.45,0,0,0-.66-1.74c-.29-.75-1.25-1.33-2.21-1.9s-6.18-.28-6.18-.28l-.13.12-14.13-7.27c-4.21-.28-8.27,4.76-8.27,4.76,2,2.14,14.22,4.9,19,5.92L79.41,314l5,1.57s.28-.93,0-1.35-2.57-1.24-3-1.8-.32-1,1.86-1.06,2.29.91,2.89,1.34,1,1.85,2,2l1.07.18L89,313.3A3.16,3.16,0,0,0,89.36,312.18Z"/><path class="cls-26" d="M30.44,304.61l16.93,9.23-3.93,4.51s-15.33-4.49-18.3-6.87a6.92,6.92,0,0,1-2.69-5.61S26.65,303.91,30.44,304.61Z"/><rect class="cls-27" x="25" y="318.67" width="102" height="4" transform="translate(152 641.34) rotate(180)"/><path class="cls-17" d="M123.27,274.4l-7.46,32.53a2.23,2.23,0,0,1-2.17,1.74H62.08A2.23,2.23,0,0,1,59.9,306l6.94-32.53A2.15,2.15,0,0,1,68,271.93h0a2.23,2.23,0,0,1,1-.25H121.1A2.23,2.23,0,0,1,123.27,274.4Z"/><path class="cls-31" d="M112.32,308.67H62.52A2.22,2.22,0,0,1,60.35,306l6.91-32.42a2.15,2.15,0,0,1,1.16-1.5C68.66,272.47,82.91,297.74,112.32,308.67Z"/><polygon class="cls-32" points="99.3 292.67 104.13 317.67 78.97 317.67 79.81 315.67 89.94 315.67 86.6 292.67 99.3 292.67"/><path class="cls-26" d="M46.18,314.36l9.28-.74,4,2.95.53,2.1H43.44S44.33,315.46,46.18,314.36Z"/><polygon class="cls-9" points="117.87 322.67 107 412.67 74.14 412.67 86.27 322.67 117.87 322.67"/><polygon class="cls-21" points="116.96 330.85 83.24 344.88 86.24 322.67 117.95 322.67 116.96 330.85"/><path class="cls-28" d="M61.55,355a224,224,0,0,0-6.43,22.92,119.58,119.58,0,0,0-2,12.36,14.42,14.42,0,0,1-3.59-2.57s4-26.87,7.82-31.7L42.45,335.28l-.72-5Z"/><path class="cls-15" d="M227.27,89.26s38.45,21.93,88,30.07C315.23,119.33,273.94,90.91,227.27,89.26Z"/><path class="cls-14" d="M319,187.67l-.05,5s-6.86,3.43-8.84,4.29-2.41,2.19-1,2.68,18.7.61,19,0c.7-1.61-1.82-6.91-1.82-6.91l-.43-5Z"/><path class="cls-14" d="M356.87,186.19l2.65,4.29s-3.22,4.71-4.79,5.71c-.93.6-3.36.93-4,1.93s0,1.76,4.07,1.81,5.15,0,7.5-1.67,6.86-5.71,6.79-6.85-3.29-3.84-3.29-3.84l-1.35-3.09Z"/><path class="cls-33" d="M336.66,114.34s-.64,20.78,3.64,35.78,15.86,38.79,15.86,38.79l12-3.43s-8.57-31.07-14.36-39.22c0,0-2.14-34.71-4.5-39.42S336.66,114.34,336.66,114.34Z"/><path class="cls-34" d="M306.84,33.43c4.76-4.6,14.2-3.32,15.66,2.16A21.35,21.35,0,0,1,322,48.66l2.38,6.19L318.05,60l-2.55-4.7a10.9,10.9,0,0,1-4,1c-3.18.17-5.43-4.21-6.73-11.86S306.84,33.43,306.84,33.43Z"/><path class="cls-9" d="M314.42,114.21a335.85,335.85,0,0,0-31.71-13.4q-5.46-2-11.45-4a226.87,226.87,0,0,0-41.14-9.73c3.06-3.73,6.2-7.28,9.42-10.59,14.73-15.18,31.06-25.46,48.54-26.35,1,.77,1.95,1.58,2.88,2.42a49.66,49.66,0,0,1,4.45,4.61C307.23,71,312.74,91.42,314.42,114.21Z"/><path class="cls-21" d="M283.16,101.51c12.93-13,9.91-38.71,8.25-48.22,14.91,13.56,21.58,36.13,23.46,61.62A335.85,335.85,0,0,0,283.16,101.51Z"/><path class="cls-17" d="M336.42,61.21s10.26,12.06,11.83,32.71l-20.94,8S314.1,80.2,312.66,72.49s2.91-15.74,2.91-15.74l7.78-5.18S333.25,56,336.42,61.21Z"/><path class="cls-16" d="M328.36,61.15a5.64,5.64,0,0,1,.78,8c-4.13,5-11,13-15.68,17.24-7.17,6.48-32.21-1.12-32.21-1.12l1.19-6.57,25.66-.13,12.18-16.38a5.64,5.64,0,0,1,8.08-1Z"/><path class="cls-14" d="M304.31,38.23a7.39,7.39,0,0,1,2.52-6.78,10.88,10.88,0,0,1,10.23-1.7A12.67,12.67,0,0,1,319.77,31a3,3,0,0,1,1.46-2.86c1.74-1.21,5.38,1.21,5.67,4.17a2.56,2.56,0,0,1-2.54,3,20.78,20.78,0,0,1,0,6.6A18.22,18.22,0,0,1,322,48.66a9.64,9.64,0,0,1-3.23-2.87s2.28-3.2,1.51-5.38-3.2-1.31-3.49.78l-.29,2.08-1.41-.34a13.47,13.47,0,0,1-.64-5.81S305,39.93,304.31,38.23Z"/><path class="cls-14" d="M307.94,56.65c2.57,1.26,6.19.68,7.63-1.6s.95-10.37.95-10.37L315,44l-1.55,4.07s-6.28-1-7.94-.1C305.53,48,305.38,55.39,307.94,56.65Z"/><polygon class="cls-16" points="323.21 50.1 315.57 56.75 316.95 60.77 325.79 52.78 323.21 50.1"/><path class="cls-34" d="M282.44,78.75l-2.14-.27s-4.43-1.72-5.82-2.07-1.78.45-1.53,1.17a1.83,1.83,0,0,0-.33,1.86,1.39,1.39,0,0,0-.13,1.68,1.88,1.88,0,0,0,.29,1.56,4.13,4.13,0,0,0,2.11,1.07,2.59,2.59,0,0,0,.89,0,5.27,5.27,0,0,0,2.25.69,4.89,4.89,0,0,0,1.87-.37l1.5.37Z"/><polygon class="cls-16" points="348.25 93.92 349.3 97.19 328.73 105.12 327.31 101.87 348.25 93.92"/><path class="cls-27" d="M349.3,97l-20.57,7.92-16.45,35a16.68,16.68,0,0,0-1.45,9.21l5,39.54h11.44a139.4,139.4,0,0,0,1-23.14A63.46,63.46,0,0,0,325,146.79c1.32-1.66,21.21-26.94,24.32-34.19C352.52,105.1,349.3,97,349.3,97Z"/><path class="cls-9" d="M453.11,414.67h5.48l-96.3-212H374v-4H288v4h13.26L321,246.27v1.4h.09L332,273.16v.51h1.22L344,298.86v.81h.35L355,324.57v.1h.47L366,348.33v1.34h1.6L378,374v1.69h.72l10.28,24v2h.89l5.81,13h7l-5.9-13H447.3Zm-78.25-171h-49.5l-9.54-21h49.66Zm-18.1-40,6.71,15H313.79l-6.82-15Zm20.14,45,9.38,21H337l-9.54-21Zm11.42,25,9.38,21H348.57l-9.54-21Zm11.42,26,9.38,21H360.18l-9.54-21Zm11.42,25,9.38,21H371.78l-9.53-21Zm11.42,26,9.38,21H383.39l-9.54-21Zm-27.58,46-9.54-21H434l9.38,21Z"/><path class="cls-17" d="M315,113.88v5.45s-21.21-12.76-43-19.81a302.86,302.86,0,0,0-45-10.26l1.9-2.71.95-1.35s17.82-.69,44.39,8.72S315,113.88,315,113.88Z"/><path class="cls-23" d="M295.41,57.2c-4-2.38-9.81-4-17.36-2.1-11.7,3-29.21,14.76-38.51,21.42,14.73-15.18,31.06-25.46,48.54-26.35,1,.77,1.95,1.58,2.88,2.42A49.66,49.66,0,0,1,295.41,57.2Z"/><path class="cls-20" d="M315,113.88v5.45s-21.21-12.76-43-19.81a302.86,302.86,0,0,0-45-10.26l1.9-2.71c3.93,0,14,.67,30.18,6.07C280.57,99.76,310.57,113.57,315,113.88Z"/><rect class="cls-7" x="283" y="243.67" width="42" height="85"/><line class="cls-35" x1="288" y1="250.17" x2="320" y2="250.17"/><path class="cls-10" d="M324.73,328.67H283V244.11S295.13,307.64,324.73,328.67Z"/><line class="cls-35" x1="288" y1="253.17" x2="320" y2="253.17"/><line class="cls-35" x1="288" y1="314.17" x2="320" y2="314.17"/><line class="cls-35" x1="288" y1="317.17" x2="320" y2="317.17"/><line class="cls-35" x1="288" y1="321.17" x2="320" y2="321.17"/><line class="cls-35" x1="288" y1="324.17" x2="320" y2="324.17"/><path class="cls-36" d="M310.68,272.73c-1-8.14-9-13.43-9-13.43s-8,5.29-9,13.43,4.5,28.44,4.5,28.44h9S311.68,280.87,310.68,272.73Z"/><path class="cls-36" d="M294.8,290.65s-4.56,3.26-5.74,4.43-1.17,7.5-1.17,7.5l3.16-4.92,5.23-.53"/><path class="cls-36" d="M308.6,290.65s4.55,3.26,5.73,4.43,1.18,7.5,1.18,7.5l-3.16-4.92-5.24-.53"/><path class="cls-25" d="M307.12,276.66a5.2,5.2,0,1,1-5.2-5.2A5.19,5.19,0,0,1,307.12,276.66Z"/><rect class="cls-25" x="309" y="257.67" width="11" height="3"/><path class="cls-8" d="M318.37,264.71a2.09,2.09,0,1,1-2.09-2.09A2.09,2.09,0,0,1,318.37,264.71Z"/><path class="cls-26" d="M345.26,297.66s2.28,1.88,1.53,11.84-4,10.71-7.82,10.07Z"/><path class="cls-26" d="M335.63,287.65l-1.3,7.25-7.66,1.69.36-5.25c-1.77.09-3.39-.12-4.23-1a2.15,2.15,0,0,1-.53-1c-1.06-4.15.06-12.47.06-12.47,2.78-9.63,12.69-6.07,15-2.39C338.93,277.19,337.51,284.18,335.63,287.65Z"/><path class="cls-37" d="M327,291.34c-1.77.09-3.39-.12-4.23-1,1-.09,3.66-.46,4.92-2C328.85,286.93,327,291.34,327,291.34Z"/><path class="cls-14" d="M340.38,286c-.12.25-.25.5-.39.74-2.52,4.45-6.59,4.5-9.86,3.27s-2.84-3.22-2.84-3.22.91.49,1.82-.85a5.31,5.31,0,0,0,.64-3.33c-.11-.73-.42-1.29-1-1.33a1,1,0,0,0-.4,0c-1,.24-1.37,1.72-1.37,1.72a2.51,2.51,0,0,1-.32-2.09c-2.89-.85-3.05-2.62-3.05-2.62l-.27,1.28a4.08,4.08,0,0,1-2.41-5.35,5.63,5.63,0,0,1,3.23-3.48l.09,0c1.93-1.27,8.47-3.07,12.43-1s3.59,5.41,3.59,5.41C342.39,277.29,342.5,281.75,340.38,286Z"/><path class="cls-14" d="M346.27,276c0,.08,0,.16,0,.23a3.19,3.19,0,0,1-3.92,2.63h0a4.49,4.49,0,0,1-1.58-.65,5.57,5.57,0,0,1-1.14-1,7.31,7.31,0,0,1-1.12-1.89,2.12,2.12,0,0,1-.11-.29,6.8,6.8,0,0,1-.31-1,6.54,6.54,0,0,1,0-.83.24.24,0,0,1,0-.12,2.72,2.72,0,0,1,0-.28h0c.1-1.34.65-3.33,3-3.64C344.5,268.57,346.86,272.85,346.27,276Z"/><path class="cls-17" d="M341,328.65v.75a22.78,22.78,0,0,1-9.85,1.35,59.46,59.46,0,0,1-6.68-.78c-3-.53-5.11-1.1-5.11-1.1l1.43-7.55-.6-5.38c-1.46-1.15-3.43-3-3.83-4.84s.94-7.76,2-11.72l-.39-3.45c.45-.14.93-.28,1.44-.41l.28-.07A134.34,134.34,0,0,1,334,293c4.83.53,11.23,4.63,11.23,4.63-.34,3.34-3.26,18-3.26,18v7.11Z"/><path class="cls-38" d="M342.1,328.65,324.83,330c-3-.53-5.11-1.1-5.11-1.1l1.43-7.55-.6-5.38c-1.46-1.15-3.43-3-3.83-4.84s.94-7.76,2-11.72l-.39-3.45c.45-.14.93-.28,1.44-.41l.28-.07c.53,4.64,2.82,20.7,7.41,24.29,4.16,3.26,11.57,3.18,14.58,3Z"/><path class="cls-26" d="M317.93,295.93l-14.85,10.14-14-12.86,0,0s-.77-2.95-1-3.59a6.88,6.88,0,0,0-2-2.41c-.41-.08-.3.45-.16.8s.58,1.77.58,1.77l-2.75-1.39s-.67-1.85-1.13-1.91-.32,1.74.13,2.49a1.22,1.22,0,0,0-.41,1.24,1.18,1.18,0,0,0-.2,1.28s-.72.73.59,2.17a21,21,0,0,0,3.13,2.71h0c1.61,2.33,11,15.66,16.58,17.22,6.11,1.72,14.9-5.11,14.9-5.11S323.68,303.36,317.93,295.93Z"/><path class="cls-26" d="M334.79,424.6c-.79.14-16.57.36-16.86-.43s-.57-1.5,2.86-2.57a11.34,11.34,0,0,0,2.23-1,32.57,32.57,0,0,0,5-3.88l-3.09-16.23-.72-3.78h9.42a28.32,28.32,0,0,1,.47,4.53c.28,5.45.26,13.69.25,15.9,0,0,.14.85.29,2C335,421.27,335.31,424.51,334.79,424.6Z"/><path class="cls-26" d="M358.64,424.38c-.67.43-11.24.12-14.17,0a.57.57,0,0,1-.45-.89,10.17,10.17,0,0,1,3.05-2.21,4.67,4.67,0,0,0,1-.81,19.38,19.38,0,0,0,2.86-4l-3.69-15.85h0l-1-4.4,8.79,1.07a22.61,22.61,0,0,1,.8,4.09c.66,5,1.07,12.48,1.2,14.8h0s.31,1,.66,2.29C358.36,420.82,359.14,424.06,358.64,424.38Z"/><path class="cls-37" d="M334.11,401.2a37.16,37.16,0,0,1-9.17-.75l-.72-3.78h9.42A28.32,28.32,0,0,1,334.11,401.2Z"/><path class="cls-37" d="M355.84,401.43a37.75,37.75,0,0,1-8.56-.76h0l-1-4.4,8.79,1.07A22.61,22.61,0,0,1,355.84,401.43Z"/><path class="cls-14" d="M357.56,396.6a20.44,20.44,0,0,1-6.68,1.59,24.94,24.94,0,0,1-6.39-.34l-11-47.32,2.37,46.36c-2.1,1.33-5.05,1.66-7.65,1.62h-.08a31.64,31.64,0,0,1-4.24-.35c-1-.14-1.55-.27-1.55-.27s-9.21-38.36-7.71-51.86,4.71-17.16,4.71-17.16a69.42,69.42,0,0,1,12.3-2.14,43.87,43.87,0,0,1,10,.13c7.24,7.93,7,19.6,7,19.6Z"/><path class="cls-14" d="M334.79,424.82c-.79.14-16.57.36-16.86-.43s-.57-1.5,2.86-2.57a11.34,11.34,0,0,0,2.23-1c0,.26.13.55.77.57,1.18,0,3.43-.6,6.78-2s4-.11,4.08,0C335,421.49,335.31,424.73,334.79,424.82Z"/><path class="cls-14" d="M358.64,424.39c-.67.43-11.24.12-14.17,0a.57.57,0,0,1-.45-.89,10.17,10.17,0,0,1,3.05-2.21,4.67,4.67,0,0,0,1-.81,2.68,2.68,0,0,0,1.5,0c1.92-.35,2.61-2.78,5.53-2.78a3.44,3.44,0,0,1,2.59.79C358.36,420.83,359.14,424.07,358.64,424.39Z"/><path class="cls-28" d="M350.88,398.19a24.94,24.94,0,0,1-6.39-.34l-11-47.32,7.86-5.91s-.83,15.86,1.59,28.43C345,383.46,349.41,394.65,350.88,398.19Z"/><path class="cls-28" d="M320.58,349c-2,20.11,7.2,48.86,7.42,49.53h-.08l-4.24-.35c-1-.14-1.55-.27-1.55-.27s-9.21-38.36-7.71-51.86,4.71-17.16,4.71-17.16a69.42,69.42,0,0,1,12.3-2.14C328.28,328.53,322.06,333.94,320.58,349Z"/><path class="cls-37" d="M303.21,306.65l-1.53,3.78S300.47,307.07,303.21,306.65Z"/><path class="cls-38" d="M327.73,313.67h12.88s.19,2.2-5.39,2.2S327.73,313.67,327.73,313.67Z"/><path class="cls-28" d="M327,283a2.51,2.51,0,0,1-.32-2.09c-2.89-.85-3.05-2.62-3.05-2.62l-.27,1.28a4.08,4.08,0,0,1-2.41-5.35,5.63,5.63,0,0,1,3.23-3.48c.17,1.8.9,6.93,4.19,10.54C327.37,281.55,327,283,327,283Z"/><path class="cls-28" d="M340.38,286c-.12.25-.25.5-.39.74-2.52,4.45-6.59,4.5-9.86,3.27s-2.84-3.22-2.84-3.22.91.49,1.82-.85a5.31,5.31,0,0,0,.64-3.33,10.94,10.94,0,0,0,3.41,1.85A25.28,25.28,0,0,0,340.38,286Z"/><path class="cls-28" d="M346.22,276.19a3.19,3.19,0,0,1-3.92,2.63h0a5.62,5.62,0,0,1-2.72-1.66,5.75,5.75,0,0,1-1.12-1.89,2.12,2.12,0,0,1-.11-.29,7.6,7.6,0,0,1-.34-1.87.24.24,0,0,1,0-.12,2.06,2.06,0,0,1,0-.33s0,0,0,0h0C339.49,276,344.27,276.24,346.22,276.19Z"/></g></g></svg>